<svg width="430" height="118" viewBox="0 0 430 118" fill="none" xmlns="http://www.w3.org/2000/svg">
<rect x="82.5" y="27.5" width="195" height="68" stroke="black" stroke-width="5"/>
<path d="M108.048 81L106.448 71.72H98L96.528 81H90.768L97.872 40.936H106.256L113.872 81H108.048ZM98.704 67.048H105.68L102.032 45.928L98.704 67.048ZM135.105 59.624H129.409V56.296C129.409 55.528 129.281 55.0373 129.025 54.824C128.769 54.568 128.257 54.44 127.489 54.44H124.737C123.969 54.44 123.457 54.568 123.201 54.824C122.945 55.0373 122.817 55.528 122.817 56.296V74.472C122.817 75.24 122.945 75.752 123.201 76.008C123.457 76.2213 123.969 76.328 124.737 76.328H127.489C128.257 76.328 128.769 76.2213 129.025 76.008C129.281 75.752 129.409 75.24 129.409 74.472V71.144H135.105V75.368C135.105 79.1227 133.1 81 129.089 81H123.009C119.041 81 117.057 79.1227 117.057 75.368V55.464C117.057 51.6667 119.041 49.768 123.009 49.768H129.089C133.1 49.768 135.105 51.6667 135.105 55.464V59.624ZM151.527 49.768H157.287V81H151.527V78.504C150.972 80.168 149.649 81 147.559 81H145.255C141.415 81 139.495 79.1227 139.495 75.368V55.464C139.495 51.6667 141.415 49.768 145.255 49.768H147.559C149.649 49.768 150.972 50.6 151.527 52.264V49.768ZM147.175 76.328H149.415C150.183 76.328 150.716 76.1573 151.015 75.816C151.356 75.4747 151.527 74.8987 151.527 74.088V56.68C151.527 55.8693 151.356 55.2933 151.015 54.952C150.716 54.6107 150.183 54.44 149.415 54.44H147.175C146.407 54.44 145.895 54.568 145.639 54.824C145.383 55.0373 145.255 55.528 145.255 56.296V74.472C145.255 75.24 145.383 75.752 145.639 76.008C145.895 76.2213 146.407 76.328 147.175 76.328ZM174.589 38.184H180.349V81H174.589V78.504C174.034 80.168 172.712 81 170.621 81H168.317C164.477 81 162.557 79.1227 162.557 75.368V55.4C162.557 51.6027 164.477 49.704 168.317 49.704H170.621C172.712 49.704 174.034 50.536 174.589 52.2V38.184ZM170.237 76.328H172.477C173.245 76.328 173.778 76.1573 174.077 75.816C174.418 75.4747 174.589 74.8987 174.589 74.088V56.616C174.589 55.8053 174.418 55.2293 174.077 54.888C173.778 54.5467 173.245 54.376 172.477 54.376H170.237C169.469 54.376 168.957 54.504 168.701 54.76C168.445 55.016 168.317 55.5067 168.317 56.232V74.472C168.317 75.24 168.445 75.752 168.701 76.008C168.957 76.2213 169.469 76.328 170.237 76.328ZM191.828 49.768H198.1C202.11 49.768 204.116 51.6667 204.116 55.464V67.176H191.508V74.6C191.508 75.3253 191.636 75.816 191.892 76.072C192.148 76.328 192.66 76.456 193.428 76.456H196.372C197.14 76.456 197.652 76.328 197.908 76.072C198.164 75.816 198.292 75.304 198.292 74.536V71.976H203.924V75.368C203.924 79.1227 201.94 81 197.972 81H191.828C187.86 81 185.876 79.1227 185.876 75.368V55.464C185.876 51.6667 187.86 49.768 191.828 49.768ZM191.508 62.952H198.42V56.168C198.42 55.4427 198.292 54.952 198.036 54.696C197.822 54.44 197.332 54.312 196.564 54.312H193.428C192.66 54.312 192.148 54.44 191.892 54.696C191.636 54.952 191.508 55.4427 191.508 56.168V62.952ZM230.826 49.768H233.066C236.906 49.768 238.826 51.6667 238.826 55.464V81H233.066V56.296C233.066 55.528 232.938 55.0373 232.682 54.824C232.469 54.568 231.978 54.44 231.21 54.44H228.906C227.541 54.44 226.858 55.1867 226.858 56.68V81H221.098V56.296C221.098 55.528 220.97 55.0373 220.714 54.824C220.458 54.568 219.946 54.44 219.178 54.44H216.938C216.17 54.44 215.615 54.6107 215.274 54.952C214.975 55.2933 214.826 55.8693 214.826 56.68V81H209.066V49.768H214.826V52.264C215.381 50.6 216.703 49.768 218.794 49.768H221.034C223.765 49.768 225.535 50.728 226.346 52.648C226.858 50.728 228.351 49.768 230.826 49.768ZM248.737 89.832H244.897V85.224H247.521C249.355 85.224 250.465 84.52 250.849 83.112L251.489 80.488H248.353L241.825 49.768H247.713L252.449 75.944L256.865 49.768H262.689L256.097 84.008C255.158 87.8907 252.705 89.832 248.737 89.832Z" fill="black"/>
<path d="M5.184 31.904H26.112C32.064 31.904 35.04 34.72 35.04 40.352V83.552C35.04 89.184 32.064 92 26.112 92H5.184V31.904ZM26.304 82.4V41.504C26.304 40.352 26.112 39.616 25.728 39.296C25.344 38.912 24.576 38.72 23.424 38.72H13.92V85.184H23.424C24.576 85.184 25.344 85.024 25.728 84.704C26.112 84.32 26.304 83.552 26.304 82.4ZM65.6745 55.232V41.504C65.6745 40.352 65.4825 39.616 65.0985 39.296C64.7145 38.912 63.9465 38.72 62.7945 38.72H53.1945V58.016H62.7945C63.9465 58.016 64.7145 57.856 65.0985 57.536C65.4825 57.152 65.6745 56.384 65.6745 55.232ZM65.6745 82.4V67.616C65.6745 66.464 65.4825 65.728 65.0985 65.408C64.7145 65.024 63.9465 64.832 62.7945 64.832H53.1945V85.184H62.7945C63.9465 85.184 64.7145 85.024 65.0985 84.704C65.4825 84.32 65.6745 83.552 65.6745 82.4ZM44.5545 31.904H65.3865C71.4025 31.904 74.4105 34.72 74.4105 40.352V55.616C74.4105 59.008 73.1305 60.992 70.5705 61.568C73.1305 62.208 74.4105 64.064 74.4105 67.136V83.552C74.4105 89.184 71.4025 92 65.3865 92H44.5545V31.904Z" fill="black"/>
<path d="M5.184 31.904H26.112C32.064 31.904 35.04 34.72 35.04 40.352V83.552C35.04 89.184 32.064 92 26.112 92H5.184V31.904ZM26.304 82.4V41.504C26.304 40.352 26.112 39.616 25.728 39.296C25.344 38.912 24.576 38.72 23.424 38.72H13.92V85.184H23.424C24.576 85.184 25.344 85.024 25.728 84.704C26.112 84.32 26.304 83.552 26.304 82.4ZM65.6745 55.232V41.504C65.6745 40.352 65.4825 39.616 65.0985 39.296C64.7145 38.912 63.9465 38.72 62.7945 38.72H53.1945V58.016H62.7945C63.9465 58.016 64.7145 57.856 65.0985 57.536C65.4825 57.152 65.6745 56.384 65.6745 55.232ZM65.6745 82.4V67.616C65.6745 66.464 65.4825 65.728 65.0985 65.408C64.7145 65.024 63.9465 64.832 62.7945 64.832H53.1945V85.184H62.7945C63.9465 85.184 64.7145 85.024 65.0985 84.704C65.4825 84.32 65.6745 83.552 65.6745 82.4ZM44.5545 31.904H65.3865C71.4025 31.904 74.4105 34.72 74.4105 40.352V55.616C74.4105 59.008 73.1305 60.992 70.5705 61.568C73.1305 62.208 74.4105 64.064 74.4105 67.136V83.552C74.4105 89.184 71.4025 92 65.3865 92H44.5545V31.904Z" fill="#57B38D"/>
</svg>
